<svg id="Group_5" data-name="Group 5" xmlns="http://www.w3.org/2000/svg" viewBox="1147 174 642 502">
  <defs>
    <style>
      .cls-1 {
        fill: #f2f2f2;
      }

      .cls-2 {
        fill: #ced4da;
      }
    </style>
  </defs>
  <path id="Path_5" data-name="Path 5" class="cls-1" d="M0,0H642V502H0Z" transform="translate(1147 174)"/>
  <g id="image" transform="translate(1355 320)">
    <g id="Group_1" data-name="Group 1" transform="translate(0 74.229)">
      <path id="Path_1" data-name="Path 1" class="cls-2" d="M163.689,143.812a18.708,18.708,0,0,1-4.783-.619L13.877,104.354A18.929,18.929,0,0,1,.615,81.376l18.3-68.2a4.689,4.689,0,1,1,9.06,2.42L9.685,83.777A9.518,9.518,0,0,0,16.344,95.3l144.972,38.82a9.337,9.337,0,0,0,11.414-6.6l7.325-27.143a4.691,4.691,0,0,1,9.06,2.439L181.8,129.922a18.733,18.733,0,0,1-18.111,13.89Z" transform="translate(0 -9.701)"/>
    </g>
    <g id="Group_2" data-name="Group 2" transform="translate(37.512 2)">
      <path id="Path_2" data-name="Path 2" class="cls-2" d="M172.823,152.065H22.758A18.777,18.777,0,0,1,4,133.307V20.758A18.777,18.777,0,0,1,22.758,2H172.823a18.777,18.777,0,0,1,18.758,18.758V133.307A18.777,18.777,0,0,1,172.823,152.065ZM22.758,11.379a9.4,9.4,0,0,0-9.379,9.379V133.307a9.4,9.4,0,0,0,9.379,9.379H172.823a9.4,9.4,0,0,0,9.379-9.379V20.758a9.4,9.4,0,0,0-9.379-9.379Z" transform="translate(-4 -2)"/>
    </g>
    <g id="Group_3" data-name="Group 3" transform="translate(65.65 30.137)">
      <path id="Path_3" data-name="Path 3" class="cls-2" d="M25.758,42.516A18.758,18.758,0,1,1,44.516,23.758,18.777,18.777,0,0,1,25.758,42.516Zm0-28.137a9.379,9.379,0,1,0,9.379,9.379A9.395,9.395,0,0,0,25.758,14.379Z" transform="translate(-7 -5)"/>
    </g>
    <g id="Group_4" data-name="Group 4" transform="translate(38.167 54.054)">
      <path id="Path_4" data-name="Path 4" class="cls-2" d="M8.762,95.526a4.685,4.685,0,0,1-3.32-8l44.3-44.3a14.415,14.415,0,0,1,19.893,0L82.819,56.415l36.5-43.8A14.091,14.091,0,0,1,130.033,7.55h.1a14.06,14.06,0,0,1,10.683,4.905l49.053,57.231a4.689,4.689,0,0,1-7.119,6.106L133.7,18.561a4.64,4.64,0,0,0-3.564-1.632,4.979,4.979,0,0,0-3.6,1.688l-39.8,47.749a4.671,4.671,0,0,1-3.4,1.679,4.514,4.514,0,0,1-3.527-1.369L63,49.859a4.817,4.817,0,0,0-6.631,0l-44.3,44.3a4.673,4.673,0,0,1-3.311,1.369Z" transform="translate(-4.07 -7.55)"/>
    </g>
  </g>
</svg>
