<?xml version="1.0" encoding="utf-8"?>
<!-- Generator: Adobe Illustrator 16.0.0, SVG Export Plug-In . SVG Version: 6.00 Build 0)  -->
<!DOCTYPE svg PUBLIC "-//W3C//DTD SVG 1.0//EN" "http://www.w3.org/TR/2001/REC-SVG-20010904/DTD/svg10.dtd">
<svg version="1.0" id="Layer_1" xmlns="http://www.w3.org/2000/svg" xmlns:xlink="http://www.w3.org/1999/xlink" x="0px" y="0px"
	 width="913px" height="599px" viewBox="0 0 913 599" enable-background="new 0 0 913 599" xml:space="preserve">
<rect x="11" y="10" fill="#F2F2F2" width="882" height="440"/>
<g id="jhkh" transform="translate(400 215)">
	<g>
		<g id="Group_1_8_" transform="translate(0 191.165)">
			<path id="Path_1_8_" fill="#CED4DA" d="M100.901-77.505c-1.544,0.002-3.082-0.197-4.574-0.591l-138.689-37.14
				c-9.514-2.642-15.155-12.417-12.683-21.976l17.499-65.224c0.625-2.396,3.075-3.831,5.472-3.205
				c2.396,0.626,3.83,3.076,3.204,5.472c-0.004,0.016-0.008,0.031-0.013,0.047l-17.489,65.204
				c-1.228,4.796,1.601,9.692,6.367,11.025L98.63-86.769c4.757,1.264,9.639-1.562,10.916-6.315l7.004-25.956
				c0.645-2.393,3.105-3.811,5.498-3.166c2.393,0.644,3.811,3.106,3.166,5.498l-6.995,25.921
				C116.121-82.949,109.016-77.499,100.901-77.505z"/>
		</g>
		<g id="Group_2_8_" transform="translate(98.243 2)">
			<path id="Path_2_8_" fill="#CED4DA" d="M43.44,57.846h-143.506c-9.902-0.011-17.928-8.036-17.938-17.938V-67.721
				c0.01-9.903,8.035-17.928,17.938-17.938H43.44c9.903,0.01,17.928,8.035,17.938,17.938V39.908
				C61.367,49.81,53.343,57.835,43.44,57.846z M-100.066-76.69c-4.95,0.007-8.961,4.019-8.969,8.969V39.908
				c0.008,4.95,4.019,8.963,8.97,8.969H43.44c4.95-0.006,8.962-4.019,8.969-8.969V-67.721c-0.007-4.951-4.019-8.962-8.969-8.969
				H-100.066z"/>
		</g>
		<g id="Group_3_8_" transform="translate(171.934 75.691)">
			<path id="Path_3_8_" fill="#CED4DA" d="M-146.849-96.566c-9.907,0-17.938-8.031-17.938-17.938
				c0-9.907,8.031-17.938,17.938-17.938c9.906,0,17.938,8.031,17.938,17.938C-128.921-104.602-136.947-96.577-146.849-96.566z
				 M-146.849-123.474c-4.954,0-8.969,4.016-8.969,8.97c0,4.953,4.015,8.969,8.969,8.969c4.953,0,8.969-4.016,8.969-8.969v0
				C-137.888-119.456-141.899-123.466-146.849-123.474z"/>
		</g>
		<g id="Group_4_8_" transform="translate(99.957 138.328)">
			<path id="Path_4_8_" fill="#CED4DA" d="M-114.604-88.079c-2.475,0.007-4.486-1.994-4.492-4.469
				c-0.003-1.193,0.471-2.339,1.316-3.182l42.361-42.36c5.075-5.075,13.947-5.075,19.023,0l12.61,12.611l34.906-41.885
				c2.537-3.042,6.284-4.813,10.244-4.843h0.099c3.927-0.003,7.658,1.711,10.216,4.692l46.908,54.728
				c1.612,1.879,1.396,4.711-0.485,6.324c-1.879,1.612-4.709,1.396-6.322-0.485L4.872-161.679c-0.85-0.999-2.098-1.57-3.408-1.561
				c-0.933-0.081-2.574,0.565-3.443,1.615l-38.057,45.662c-0.807,0.97-1.986,1.554-3.247,1.606c-1.261,0.079-2.494-0.4-3.372-1.31
				l-16.082-16.081c-1.777-1.686-4.563-1.686-6.34,0l-42.361,42.36C-112.278-88.549-113.417-88.077-114.604-88.079z"/>
		</g>
	</g>
</g>
<g>
	<rect x="10.504" y="464.502" fill="#F2F2F2" width="215.655" height="112"/>
	<g id="jhkh_1_" transform="translate(400 215)">
		<g>
			<g id="Group_1_14_" transform="translate(0 191.165)">
				<path id="Path_1_14_" fill="#CED4DA" d="M-266.396,145.342c-0.482,0.001-0.963-0.063-1.429-0.185l-43.313-11.672
					c-2.972-0.831-4.733-3.902-3.96-6.906l5.464-20.496c0.195-0.753,0.96-1.204,1.709-1.008s1.196,0.967,1,1.72
					c-0.001,0.006-0.002,0.01-0.004,0.015l-5.462,20.49c-0.384,1.507,0.5,3.046,1.989,3.465l43.296,11.666
					c1.485,0.397,3.01-0.49,3.409-1.983l2.188-8.157c0.201-0.753,0.97-1.198,1.716-0.996c0.748,0.203,1.19,0.977,0.989,1.729
					l-2.184,8.146C-261.643,143.632-263.862,145.345-266.396,145.342z"/>
			</g>
			<g id="Group_2_14_" transform="translate(98.243 2)">
				<path id="Path_2_14_" fill="#CED4DA" d="M-351.903,317.596h-44.818c-3.092-0.003-5.599-2.525-5.602-5.638v-33.822
					c0.003-3.111,2.51-5.634,5.602-5.638h44.818c3.093,0.004,5.599,2.526,5.602,5.638v33.822
					C-346.304,315.07-348.81,317.593-351.903,317.596z M-396.721,275.317c-1.546,0.002-2.798,1.263-2.801,2.818v33.822
					c0.003,1.557,1.255,2.817,2.801,2.819h44.818c1.546-0.002,2.799-1.263,2.801-2.819v-33.822
					c-0.002-1.556-1.255-2.816-2.801-2.818H-396.721z"/>
			</g>
			<g id="Group_3_14_" transform="translate(171.934 75.691)">
				<path id="Path_3_14_" fill="#CED4DA" d="M-462.008,218.538c-3.094,0-5.602-2.523-5.602-5.637s2.508-5.637,5.602-5.637
					c3.094,0,5.603,2.523,5.603,5.637C-456.409,216.013-458.915,218.536-462.008,218.538z M-462.008,210.082
					c-1.547,0-2.801,1.263-2.801,2.818c0,1.557,1.254,2.818,2.801,2.818s2.801-1.262,2.801-2.818l0,0
					C-459.21,211.345-460.462,210.084-462.008,210.082z"/>
			</g>
			<g id="Group_4_14_" transform="translate(99.957 138.328)">
				<path id="Path_4_14_" fill="#CED4DA" d="M-402.439,178.252c-0.773,0.002-1.401-0.627-1.403-1.404
					c-0.001-0.376,0.147-0.735,0.411-1l13.23-13.313c1.585-1.595,4.356-1.595,5.941,0l3.938,3.964l10.902-13.163
					c0.792-0.956,1.963-1.513,3.199-1.521h0.031c1.226-0.002,2.392,0.537,3.19,1.474l14.65,17.199
					c0.503,0.59,0.436,1.48-0.151,1.986c-0.587,0.507-1.471,0.438-1.975-0.152l-14.65-17.198c-0.266-0.314-0.655-0.493-1.064-0.491
					c-0.291-0.025-0.804,0.178-1.076,0.508l-11.885,14.35c-0.252,0.304-0.62,0.488-1.014,0.504c-0.394,0.025-0.778-0.125-1.053-0.41
					l-5.022-5.055c-0.555-0.529-1.425-0.529-1.98,0l-13.229,13.312C-401.713,178.105-402.069,178.253-402.439,178.252z"/>
			</g>
		</g>
	</g>
</g>
<g>
	<rect x="233.116" y="464.502" fill="#F2F2F2" width="215.655" height="112"/>
	<g id="jhkh_3_" transform="translate(400 215)">
		<g>
			<g id="Group_1_15_" transform="translate(0 191.165)">
				<path id="Path_1_15_" fill="#CED4DA" d="M-48.093,145.342c-0.482,0.001-0.962-0.063-1.428-0.185l-43.313-11.672
					c-2.972-0.831-4.733-3.902-3.961-6.906l5.465-20.496c0.195-0.753,0.96-1.204,1.709-1.008c0.748,0.196,1.195,0.967,1,1.72
					c-0.001,0.006-0.002,0.01-0.004,0.015l-5.462,20.49c-0.384,1.507,0.5,3.046,1.988,3.465l43.296,11.666
					c1.485,0.397,3.011-0.49,3.409-1.983l2.188-8.157c0.201-0.753,0.969-1.198,1.716-0.996c0.747,0.203,1.19,0.977,0.989,1.729
					l-2.184,8.146C-43.339,143.632-45.559,145.345-48.093,145.342z"/>
			</g>
			<g id="Group_2_15_" transform="translate(98.243 2)">
				<path id="Path_2_15_" fill="#CED4DA" d="M-133.6,317.596h-44.818c-3.092-0.003-5.599-2.525-5.602-5.638v-33.822
					c0.003-3.111,2.51-5.634,5.602-5.638h44.818c3.093,0.004,5.599,2.526,5.602,5.638v33.822
					C-128.001,315.07-130.507,317.593-133.6,317.596z M-178.418,275.317c-1.546,0.002-2.798,1.263-2.801,2.818v33.822
					c0.003,1.557,1.255,2.817,2.801,2.819h44.818c1.546-0.002,2.799-1.263,2.801-2.819v-33.822
					c-0.002-1.556-1.255-2.816-2.801-2.818H-178.418z"/>
			</g>
			<g id="Group_3_15_" transform="translate(171.934 75.691)">
				<path id="Path_3_15_" fill="#CED4DA" d="M-243.705,218.538c-3.094,0-5.603-2.523-5.603-5.637s2.508-5.637,5.603-5.637
					c3.094,0,5.602,2.523,5.602,5.637C-238.106,216.013-240.613,218.536-243.705,218.538z M-243.705,210.082
					c-1.547,0-2.801,1.263-2.801,2.818c0,1.557,1.254,2.818,2.801,2.818c1.547,0,2.801-1.262,2.801-2.818l0,0
					C-240.907,211.345-242.159,210.084-243.705,210.082z"/>
			</g>
			<g id="Group_4_15_" transform="translate(99.957 138.328)">
				<path id="Path_4_15_" fill="#CED4DA" d="M-184.137,178.252c-0.773,0.002-1.401-0.627-1.403-1.404
					c-0.001-0.376,0.147-0.735,0.411-1l13.23-13.313c1.585-1.595,4.355-1.595,5.941,0l3.938,3.964l10.901-13.163
					c0.792-0.956,1.963-1.513,3.2-1.521h0.03c1.227-0.002,2.392,0.537,3.19,1.474l14.65,17.199c0.504,0.59,0.436,1.48-0.151,1.986
					c-0.587,0.507-1.471,0.438-1.975-0.152l-14.649-17.198c-0.266-0.314-0.655-0.493-1.065-0.491
					c-0.291-0.025-0.803,0.178-1.075,0.508l-11.885,14.35c-0.252,0.304-0.62,0.488-1.014,0.504c-0.394,0.025-0.778-0.125-1.053-0.41
					l-5.022-5.055c-0.555-0.529-1.425-0.529-1.98,0l-13.229,13.312C-183.41,178.105-183.766,178.253-184.137,178.252z"/>
			</g>
		</g>
	</g>
</g>
<g>
	<rect x="454.734" y="464.502" fill="#F2F2F2" width="215.655" height="112"/>
	<g id="jhkh_5_" transform="translate(400 215)">
		<g>
			<g id="Group_1_16_" transform="translate(0 191.165)">
				<path id="Path_1_16_" fill="#CED4DA" d="M182.136,145.342c-0.482,0.001-0.963-0.063-1.429-0.185l-43.313-11.672
					c-2.972-0.831-4.733-3.902-3.96-6.906l5.464-20.496c0.195-0.753,0.96-1.204,1.709-1.008c0.748,0.196,1.196,0.967,1,1.72
					c-0.001,0.006-0.002,0.01-0.004,0.015l-5.462,20.49c-0.384,1.507,0.5,3.046,1.989,3.465l43.296,11.666
					c1.485,0.397,3.01-0.49,3.409-1.983l2.188-8.157c0.201-0.753,0.97-1.198,1.716-0.996c0.748,0.203,1.19,0.977,0.989,1.729
					l-2.184,8.146C186.889,143.632,184.669,145.345,182.136,145.342z"/>
			</g>
			<g id="Group_2_16_" transform="translate(98.243 2)">
				<path id="Path_2_16_" fill="#CED4DA" d="M96.629,317.596H51.811c-3.092-0.003-5.599-2.525-5.602-5.638v-33.822
					c0.003-3.111,2.51-5.634,5.602-5.638h44.818c3.093,0.004,5.599,2.526,5.602,5.638v33.822
					C102.228,315.07,99.722,317.593,96.629,317.596z M51.811,275.317c-1.546,0.002-2.798,1.263-2.801,2.818v33.822
					c0.003,1.557,1.255,2.817,2.801,2.819h44.818c1.546-0.002,2.799-1.263,2.801-2.819v-33.822
					c-0.002-1.556-1.255-2.816-2.801-2.818H51.811z"/>
			</g>
			<g id="Group_3_16_" transform="translate(171.934 75.691)">
				<path id="Path_3_16_" fill="#CED4DA" d="M-13.477,218.538c-3.094,0-5.602-2.523-5.602-5.637s2.508-5.637,5.602-5.637
					c3.094,0,5.602,2.523,5.602,5.637C-7.877,216.013-10.384,218.536-13.477,218.538z M-13.477,210.082
					c-1.547,0-2.801,1.263-2.801,2.818c0,1.557,1.254,2.818,2.801,2.818s2.801-1.262,2.801-2.818l0,0
					C-10.678,211.345-11.931,210.084-13.477,210.082z"/>
			</g>
			<g id="Group_4_16_" transform="translate(99.957 138.328)">
				<path id="Path_4_16_" fill="#CED4DA" d="M46.092,178.252c-0.773,0.002-1.402-0.627-1.404-1.404
					c-0.001-0.376,0.147-0.735,0.411-1l13.23-13.313c1.585-1.595,4.356-1.595,5.941,0l3.938,3.964l10.902-13.163
					c0.792-0.956,1.963-1.513,3.199-1.521h0.031c1.226-0.002,2.392,0.537,3.19,1.474l14.65,17.199
					c0.503,0.59,0.436,1.48-0.151,1.986c-0.587,0.507-1.471,0.438-1.975-0.152l-14.65-17.198c-0.266-0.314-0.655-0.493-1.064-0.491
					c-0.291-0.025-0.804,0.178-1.076,0.508l-11.885,14.35c-0.252,0.304-0.62,0.488-1.014,0.504c-0.394,0.025-0.778-0.125-1.053-0.41
					l-5.022-5.055c-0.555-0.529-1.425-0.529-1.98,0L47.081,177.84C46.818,178.105,46.463,178.253,46.092,178.252z"/>
			</g>
		</g>
	</g>
</g>
<g>
	<rect x="677.345" y="464.502" fill="#F2F2F2" width="215.655" height="112"/>
	<g id="jhkh_8_" transform="translate(400 215)">
		<g>
			<g id="Group_1_13_" transform="translate(0 191.165)">
				<path id="Path_1_13_" fill="#CED4DA" d="M400.444,145.342c-0.481,0.001-0.963-0.063-1.429-0.185l-43.313-11.672
					c-2.972-0.831-4.733-3.902-3.961-6.906l5.464-20.496c0.196-0.753,0.961-1.204,1.71-1.008c0.748,0.196,1.196,0.967,1,1.72
					c-0.001,0.006-0.002,0.01-0.004,0.015l-5.462,20.49c-0.384,1.507,0.501,3.046,1.989,3.465l43.297,11.666
					c1.484,0.397,3.01-0.49,3.408-1.983l2.188-8.157c0.202-0.753,0.971-1.198,1.717-0.996c0.747,0.203,1.19,0.977,0.989,1.729
					l-2.184,8.146C405.198,143.632,402.979,145.345,400.444,145.342z"/>
			</g>
			<g id="Group_2_13_" transform="translate(98.243 2)">
				<path id="Path_2_13_" fill="#CED4DA" d="M314.939,317.596H270.12c-3.092-0.003-5.599-2.525-5.602-5.638v-33.822
					c0.003-3.111,2.51-5.634,5.602-5.638h44.818c3.092,0.004,5.599,2.526,5.602,5.638v33.822
					C320.537,315.07,318.03,317.593,314.939,317.596z M270.12,275.317c-1.546,0.002-2.799,1.263-2.801,2.818v33.822
					c0.002,1.557,1.255,2.817,2.801,2.819h44.818c1.545-0.002,2.799-1.263,2.801-2.819v-33.822
					c-0.002-1.556-1.256-2.816-2.801-2.818H270.12z"/>
			</g>
			<g id="Group_3_13_" transform="translate(171.934 75.691)">
				<path id="Path_3_13_" fill="#CED4DA" d="M204.833,218.538c-3.094,0-5.603-2.523-5.603-5.637s2.509-5.637,5.603-5.637
					c3.095,0,5.604,2.523,5.604,5.637C210.432,216.013,207.926,218.536,204.833,218.538z M204.833,210.082
					c-1.547,0-2.801,1.263-2.801,2.818c0,1.557,1.254,2.818,2.801,2.818s2.801-1.262,2.801-2.818l0,0
					C207.63,211.345,206.378,210.084,204.833,210.082z"/>
			</g>
			<g id="Group_4_13_" transform="translate(99.957 138.328)">
				<path id="Path_4_13_" fill="#CED4DA" d="M264.402,178.252c-0.773,0.002-1.402-0.627-1.404-1.404
					c-0.001-0.376,0.147-0.735,0.411-1l13.229-13.313c1.585-1.595,4.356-1.595,5.941,0l3.938,3.964l10.903-13.163
					c0.792-0.956,1.962-1.513,3.198-1.521h0.031c1.226-0.002,2.392,0.537,3.19,1.474l14.649,17.199
					c0.504,0.59,0.436,1.48-0.151,1.986c-0.587,0.507-1.472,0.438-1.974-0.152l-14.651-17.198c-0.265-0.314-0.654-0.493-1.063-0.491
					c-0.291-0.025-0.804,0.178-1.075,0.508l-11.886,14.35c-0.252,0.304-0.62,0.488-1.015,0.504c-0.394,0.025-0.778-0.125-1.053-0.41
					l-5.022-5.055c-0.555-0.529-1.425-0.529-1.979,0l-13.23,13.312C265.128,178.105,264.772,178.253,264.402,178.252z"/>
			</g>
		</g>
	</g>
</g>
</svg>
