<svg xmlns="http://www.w3.org/2000/svg" viewBox="400 217 589.533 540.4">
  <defs>
    <style>
      .cls-1 {
        fill: #ced4da;
      }
    </style>
  </defs>
  <g id="jhkh" transform="translate(400 215)">
    <g id="Group_1" data-name="Group 1" transform="translate(0 191.165)">
      <path id="Path_1" data-name="Path 1" class="cls-1" d="M428.7,360.936a49,49,0,0,1-12.527-1.621L36.343,257.6A49.574,49.574,0,0,1,1.61,197.416L49.534,18.789a12.28,12.28,0,1,1,23.728,6.337L25.363,203.7A24.928,24.928,0,0,0,42.8,233.893l379.68,101.669a24.453,24.453,0,0,0,29.894-17.293l19.184-71.087a12.286,12.286,0,0,1,23.729,6.387l-19.16,70.989A49.061,49.061,0,0,1,428.7,360.936Z" transform="translate(0 -9.701)"/>
    </g>
    <g id="Group_2" data-name="Group 2" transform="translate(98.243 2)">
      <path id="Path_2" data-name="Path 2" class="cls-1" d="M446.145,395.018H53.127A49.177,49.177,0,0,1,4,345.891V51.127A49.177,49.177,0,0,1,53.127,2H446.145a49.177,49.177,0,0,1,49.127,49.127V345.891A49.177,49.177,0,0,1,446.145,395.018ZM53.127,26.564A24.6,24.6,0,0,0,28.564,51.127V345.891a24.6,24.6,0,0,0,24.564,24.564H446.145a24.6,24.6,0,0,0,24.564-24.564V51.127a24.6,24.6,0,0,0-24.564-24.564Z" transform="translate(-4 -2)"/>
    </g>
    <g id="Group_3" data-name="Group 3" transform="translate(171.934 75.691)">
      <path id="Path_3" data-name="Path 3" class="cls-1" d="M56.127,103.255a49.127,49.127,0,1,1,49.127-49.127A49.177,49.177,0,0,1,56.127,103.255Zm0-73.691A24.564,24.564,0,1,0,80.691,54.127,24.6,24.6,0,0,0,56.127,29.564Z" transform="translate(-7 -5)"/>
    </g>
    <g id="Group_4" data-name="Group 4" transform="translate(99.957 138.328)">
      <path id="Path_4" data-name="Path 4" class="cls-1" d="M16.358,237.957A12.27,12.27,0,0,1,7.662,217L123.676,100.99c13.9-13.9,38.2-13.9,52.1,0l34.536,34.536,95.6-114.712A36.9,36.9,0,0,1,333.966,7.55h.27A36.823,36.823,0,0,1,362.214,20.4L490.682,170.284a12.281,12.281,0,0,1-18.644,15.991L343.57,36.388a12.151,12.151,0,0,0-9.334-4.274c-2.555-.221-7.05,1.548-9.432,4.421L220.58,161.589a12.235,12.235,0,0,1-8.892,4.4,11.823,11.823,0,0,1-9.236-3.586l-44.043-44.043a12.617,12.617,0,0,0-17.366,0L25.029,234.371a12.238,12.238,0,0,1-8.671,3.586Z" transform="translate(-4.07 -7.55)"/>
    </g>
  </g>
</svg>
