<?xml version="1.0" encoding="utf-8"?>
<!-- Generator: Adobe Illustrator 16.0.0, SVG Export Plug-In . SVG Version: 6.00 Build 0)  -->
<!DOCTYPE svg PUBLIC "-//W3C//DTD SVG 1.1//EN" "http://www.w3.org/Graphics/SVG/1.1/DTD/svg11.dtd">
<svg version="1.1" id="Layer_1" xmlns="http://www.w3.org/2000/svg" xmlns:xlink="http://www.w3.org/1999/xlink" x="0px" y="0px"
	 width="14.57px" height="16.043px" viewBox="0 0 14.57 16.043" enable-background="new 0 0 14.57 16.043" xml:space="preserve">
<path fill-rule="evenodd" clip-rule="evenodd" fill="#413D3D" d="M7.284,3.958c0.212-0.293,0.443-0.55,0.705-0.781
	C8.528,2.704,9.143,2.38,9.856,2.284c1.221-0.168,2.308,0.144,3.219,0.987c0.729,0.671,1.129,1.52,1.284,2.492
	c0.123,0.77,0.063,1.526-0.19,2.263c-0.202,0.587-0.51,1.114-0.878,1.609c-0.534,0.719-1.161,1.354-1.83,1.942
	c-1.135,1-2.285,1.985-3.428,2.977c-0.062,0.053-0.121,0.107-0.183,0.16c-0.327,0.288-0.786,0.297-1.116,0.014
	c-1.197-1.032-2.398-2.063-3.584-3.106C2.5,11.05,1.891,10.435,1.36,9.748C0.987,9.267,0.673,8.75,0.455,8.179
	c-0.245-0.639-0.339-1.3-0.295-1.983c0.044-0.685,0.22-1.333,0.556-1.931c0.54-0.959,1.33-1.613,2.398-1.895
	C4.249,2.074,5.315,2.246,6.28,2.938c0.36,0.259,0.665,0.571,0.932,0.923C7.234,3.889,7.256,3.919,7.284,3.958z M7.283,14.096
	c0.025-0.022,0.046-0.039,0.065-0.057c0.321-0.276,0.644-0.55,0.963-0.828c0.96-0.838,1.927-1.672,2.877-2.521
	c0.587-0.526,1.121-1.103,1.575-1.751c0.654-0.935,0.958-1.951,0.764-3.094c-0.092-0.539-0.28-1.038-0.6-1.482
	c-0.517-0.718-1.213-1.149-2.096-1.265c-0.589-0.078-1.151,0.008-1.68,0.284C8.547,3.7,8.106,4.19,7.753,4.763
	c-0.23,0.376-0.695,0.378-0.936,0.008C6.67,4.545,6.516,4.322,6.339,4.122C5.685,3.378,4.871,3,3.868,3.085
	c-0.856,0.072-1.57,0.437-2.097,1.112C0.956,5.243,0.802,6.419,1.164,7.673C1.339,8.282,1.68,8.805,2.07,9.299
	c0.574,0.724,1.24,1.357,1.932,1.965c0.806,0.707,1.624,1.398,2.436,2.099C6.718,13.605,6.997,13.849,7.283,14.096z"/>
</svg>
