<svg xmlns="http://www.w3.org/2000/svg" width="14.57" height="16.044" viewBox="0 0 14.57 16.044">
  <g id="notification" transform="translate(-30.999)">
    <path id="Path_10" data-name="Path 10" d="M43.3,8.237v-1.5a4.889,4.889,0,0,0-3.562-4.648V1.41a1.458,1.458,0,0,0-2.914,0v.679a4.889,4.889,0,0,0-3.562,4.648v1.5a7.256,7.256,0,0,1-2.131,5.131.459.459,0,0,0-.1.51.486.486,0,0,0,.447.286H35.9a2.446,2.446,0,0,0,4.759,0h4.42a.486.486,0,0,0,.447-.286.459.459,0,0,0-.1-.51A7.256,7.256,0,0,1,43.3,8.237ZM37.8,1.41a.486.486,0,0,1,.971,0V1.9c-.16-.015-.322-.023-.486-.023s-.326.008-.486.023ZM38.284,15.1a1.457,1.457,0,0,1-1.373-.94h2.747A1.457,1.457,0,0,1,38.284,15.1Zm-5.753-1.88a8.135,8.135,0,0,0,1.705-4.987v-1.5a4.049,4.049,0,0,1,8.095,0v1.5a8.135,8.135,0,0,0,1.705,4.987Z" transform="translate(0 0)" fill="#413D3D"/>
    <path id="Path_11" data-name="Path 11" d="M391.484,56.8a.486.486,0,0,0,.971,0,7.237,7.237,0,0,0-2.134-5.151.486.486,0,1,0-.687.687A6.272,6.272,0,0,1,391.484,56.8Z" transform="translate(-346.886 -49.839)" fill="#413D3D"/>
    <path id="Path_12" data-name="Path 12" d="M31.486,57.287a.486.486,0,0,0,.486-.486,6.273,6.273,0,0,1,1.849-4.465.486.486,0,0,0-.687-.687A7.237,7.237,0,0,0,31,56.8.486.486,0,0,0,31.486,57.287Z" transform="translate(-0.001 -49.84)" fill="#413D3D"/>
  </g>
</svg>