<svg id="Group_8" data-name="Group 8" xmlns="http://www.w3.org/2000/svg" viewBox="158 1478 1605 619">
    <defs>
        <style>
            .cls-1 {
            fill: none;
            }

            .cls-2 {
            fill: #ced4da;
            }
        </style>
    </defs>
    <g id="Group_7" data-name="Group 7">
        <g id="Group_6" data-name="Group 6">
            <rect id="Rectangle_1" data-name="Rectangle 1" class="cls-1" width="1605" height="619" transform="translate(158 1478)"/>
            <g id="jhkh" transform="translate(764 1605)">
                <g id="Group_1" data-name="Group 1" transform="translate(0 128.392)">
                    <path id="Path_1" data-name="Path 1" class="cls-2" d="M286.437,244.381a32.737,32.737,0,0,1-8.37-1.083L24.283,175.334a33.123,33.123,0,0,1-23.207-40.21L33.1,15.773a8.205,8.205,0,1,1,15.854,4.234l-32,119.318A16.656,16.656,0,0,0,28.6,159.5l253.686,67.931a16.338,16.338,0,0,0,19.974-11.554l12.818-47.5a8.209,8.209,0,0,1,15.854,4.267l-12.8,47.432a32.78,32.78,0,0,1-31.692,24.307Z" transform="translate(0 -9.701)"/>
                </g>
                <g id="Group_2" data-name="Group 2" transform="translate(65.642 2)">
                    <path id="Path_2" data-name="Path 2" class="cls-2" d="M299.422,264.6H36.825A32.858,32.858,0,0,1,4,231.773V34.825A32.858,32.858,0,0,1,36.825,2h262.6a32.858,32.858,0,0,1,32.825,32.825V231.773A32.858,32.858,0,0,1,299.422,264.6ZM36.825,18.412A16.439,16.439,0,0,0,20.412,34.825V231.773a16.439,16.439,0,0,0,16.412,16.412h262.6a16.439,16.439,0,0,0,16.412-16.412V34.825a16.439,16.439,0,0,0-16.412-16.412Z" transform="translate(-4 -2)"/>
                </g>
                <g id="Group_3" data-name="Group 3" transform="translate(114.879 51.237)">
                    <path id="Path_3" data-name="Path 3" class="cls-2" d="M39.825,70.649A32.825,32.825,0,1,1,72.649,37.825,32.858,32.858,0,0,1,39.825,70.649Zm0-49.237A16.412,16.412,0,1,0,56.237,37.825,16.439,16.439,0,0,0,39.825,21.412Z" transform="translate(-7 -5)"/>
                </g>
                <g id="Group_4" data-name="Group 4" transform="translate(66.787 93.088)">
                    <path id="Path_4" data-name="Path 4" class="cls-2" d="M12.28,161.5a8.2,8.2,0,0,1-5.81-14L83.986,69.983c9.289-9.289,25.521-9.289,34.811,0l23.076,23.076,63.877-76.646A24.658,24.658,0,0,1,224.492,7.55h.181a24.6,24.6,0,0,1,18.694,8.584L329.2,116.282a8.206,8.206,0,1,1-12.457,10.684L230.909,26.818a8.119,8.119,0,0,0-6.237-2.856,8.712,8.712,0,0,0-6.3,2.954l-69.638,83.555a8.175,8.175,0,0,1-5.941,2.938,7.9,7.9,0,0,1-6.171-2.4L107.193,81.586a8.43,8.43,0,0,0-11.6,0L18.074,159.1a8.177,8.177,0,0,1-5.794,2.4Z" transform="translate(-4.07 -7.55)"/>
                </g>
            </g>
        </g>
    </g>
</svg>
