<svg xmlns="http://www.w3.org/2000/svg" width="16.933" height="18.171" viewBox="0 0 16.933 18.171">
  <g id="user" transform="translate(-17.44)">
    <g id="Group_4" data-name="Group 4" transform="translate(17.44 10.235)">
      <g id="Group_3" data-name="Group 3">
        <path id="Path_4" data-name="Path 4" d="M25.907,288.389c-5.46,0-8.467,2.583-8.467,7.273a.663.663,0,0,0,.663.663H33.71a.663.663,0,0,0,.663-.663C34.373,290.972,31.366,288.389,25.907,288.389ZM18.79,295c.261-3.507,2.652-5.283,7.116-5.283s6.855,1.777,7.116,5.283Z" transform="translate(-17.44 -288.389)" fill="#413D3D" stroke="#413D3D" stroke-width="0.5"/>
      </g>
    </g>
    <g id="Group_6" data-name="Group 6" transform="translate(21.508)">
      <g id="Group_5" data-name="Group 5">
        <path id="Path_5" data-name="Path 5" d="M136.448,0a4.346,4.346,0,0,0-4.4,4.487,4.414,4.414,0,1,0,8.8,0A4.346,4.346,0,0,0,136.448,0Zm0,7.936a3.281,3.281,0,0,1-3.073-3.449,3.016,3.016,0,0,1,3.073-3.161,3.049,3.049,0,0,1,3.073,3.161A3.281,3.281,0,0,1,136.448,7.936Z" transform="translate(-132.049)" fill="#413D3D" stroke="#413D3D" stroke-width="0.5"/>
      </g>
    </g>
  </g>
</svg>